<svg xmlns="http://www.w3.org/2000/svg"  viewBox="0 0 64 64" width="128px" height="128px"><g data-name="11-Clock"><path fill="#fbfbfb" d="M58,32A26,26,0,1,1,32,6,26,26,0,0,1,58,32Z"/><path fill="#e3effa" d="M58,32A26,26,0,0,0,10.865,16.865a25.994,25.994,0,0,1,36.27,36.27A25.961,25.961,0,0,0,58,32Z"/><path fill="#fcc369" d="M32,1A31,31,0,1,1,1,32,31,31,0,0,1,32,1Zm0,57A26,26,0,1,0,6,32,26,26,0,0,0,32,58Z"/><path fill="#555fa3" d="M34,17.2V31.48a1.944,1.944,0,0,1-.46,1.27l-6.28,7.64a1.808,1.808,0,0,1-2.9-.26,2.344,2.344,0,0,1,.3-2.83l5.1-6.02a.969.969,0,0,0,.24-.65V17.2a2.009,2.009,0,1,1,4,0Z"/><path fill="#e3effa" d="M24.36,40.13a2.344,2.344,0,0,1,.3-2.83l5.1-6.02a.969.969,0,0,0,.24-.65V17.2a2.347,2.347,0,0,1,.31-1.166A1.873,1.873,0,0,0,30,16a2.107,2.107,0,0,0-2,2.2V31.63a.969.969,0,0,1-.24.65l-5.1,6.02a2.344,2.344,0,0,0-.3,2.83,1.808,1.808,0,0,0,2.9.26l.35-.426A1.875,1.875,0,0,1,24.36,40.13Z"/><path fill="#ed9b52" d="M32,4A28,28,0,1,0,60,32,28,28,0,0,0,32,4Zm0,54A26,26,0,1,1,58,32,26,26,0,0,1,32,58Z"/><path fill="#555fa3" d="M33,11V6.025C32.668,6.013,32.335,6,32,6s-.668.013-1,.025V11Z"/><path fill="#555fa3" d="M31,53v4.975c.332.012.665.025,1,.025s.668-.013,1-.025V53Z"/><path fill="#555fa3" d="M57.975,31H53v2h4.975c.012-.332.025-.665.025-1S57.987,31.332,57.975,31Z"/><path fill="#555fa3" d="M11,31H6.025c-.012.332-.025.665-.025,1s.013.668.025,1H11Z"/></g></svg>