<svg xmlns="http://www.w3.org/2000/svg"  viewBox="0 0 48 48" width="96px" height="96px"><path fill="#dd7c12" d="M44,5H9v27h35V5L44,5z"/><rect width="31" height="24" x="11" y="7" fill="#009688"/><path fill="#773d04" d="M46,35v-2c0-1.1-0.9-2-2-2H9c-1.1,0-2,0.9-2,2v2H46z"/><path fill="#ffb74d" d="M10,19c-2.8,0-5-2.2-5-5s2.3-5,5-5c2.8,0,5,2.2,5,5S12.7,19,10,19"/><polygon fill="#ffb74d" points="5,41 2,39 2,35 5,35"/><polygon fill="#ffb74d" points="28,20.125 28,23.725 24.625,26.25 23,23.75"/><path fill="#455a64" d="M24.571,22.01l-3.572,2.606c0,0-6.018-3.51-6.499-3.775c-0.406-0.223-0.796-0.408-1.162-0.508	c-0.156-0.043-0.323-0.085-0.498-0.124c-0.55-0.12-1.2-0.21-1.87-0.21h-1c-1.04,0-1.96,0.1-2.76,0.28C3.09,21.2,2,24.32,2,28v8l3,2	v5h10l1-13.375v-3.282l4.123,2.387C20.434,28.911,20.78,29,21.125,29c0.415,0,0.829-0.129,1.179-0.385l4.625-3.375L24.571,22.01z"/><path fill="#e3f2fd" d="M12.84,20.21L10.02,24l-2.81-3.72C8.01,20.1,8.93,20,9.97,20h1C11.64,20,12.29,20.09,12.84,20.21z"/><rect width="13" height="2" x="18" y="10" fill="#fff"/><rect width="21" height="2" x="18" y="15" fill="#fff"/><rect width="6" height="2" x="33" y="10" fill="#fff"/></svg>