<svg xmlns="http://www.w3.org/2000/svg"  viewBox="0 0 48 48" width="96px" height="96px"><path fill="#7cb342" d="M30.638,15.298h-9v4.215c-0.848-0.064-1.466-0.64-1.986-0.64c-0.787,0-1.068,0.862-1.068,1.926	s0.281,1.926,1.068,1.926c0.52,0,1.138-0.576,1.986-0.64v4.215h4.215c-0.064-0.848-0.64-1.466-0.64-1.986	c0-0.787,0.862-1.068,1.926-1.068s1.926,0.281,1.926,1.068c0,0.52-0.576,1.138-0.64,1.986h4.215v-9	C32.638,16.193,31.743,15.298,30.638,15.298z"/><path fill="#2d4c5c" d="M40.359,43L40.359,43c1.105,0,2-0.895,2-2V26h-4v15C38.359,42.105,39.254,43,40.359,43z"/><path fill="#546e7a" d="M31.414,40.553l1.782-7.408c0.069-0.371,0.192-0.73,0.364-1.066L36.359,26h6	c0,1.16-0.403,2.406-1.142,3.301l-4.257,5.164l-1.684,6.926c-0.224,1.18-1.451,1.914-2.629,1.486	C31.721,42.542,31.23,41.52,31.414,40.553"/><path fill="#ffb74d" d="M38.859,4c-1.933,0-3.5,1.567-3.5,3.5c0,1.932,1.567,3.5,3.5,3.5c1.933,0,3.5-1.568,3.5-3.5	C42.359,5.567,40.792,4,38.859,4"/><path fill="#e64a19" d="M36.359,26h6V15c0-1.657-1.343-3-3-3h0c-1.657,0-3,1.343-3,3V26z"/><path fill="#ffb74d" d="M27.579,22.04c0.321,0.113,0.671,0.114,0.993,0.001l6.045-2.111c0.186-0.065,0.358-0.167,0.505-0.298	l4.255-3.802c0.618-0.552,0.671-1.5,0.119-2.118s-1.5-0.671-2.118-0.119l-4.032,3.602l-5.764,2.012	c-0.782,0.274-1.194,1.13-0.921,1.912C26.812,21.55,27.15,21.888,27.579,22.04z"/><path fill="#d32f2f" d="M17,43H8c-1.105,0-2-0.895-2-2v-9h11V43z"/><path fill="#fb8c00" d="M23.785,32c0.064-0.848,0.64-1.466,0.64-1.986c0-0.787-0.862-1.068-1.926-1.068	s-1.926,0.281-1.926,1.068c0,0.52,0.576,1.138,0.64,1.986H17v4.215c-0.848-0.064-1.466-0.64-1.986-0.64	c-0.787,0-1.068,0.862-1.068,1.926s0.281,1.926,1.068,1.926c0.52,0,1.138-0.576,1.986-0.64V43h9c1.105,0,2-0.895,2-2v-9H23.785z"/><path fill="#29b6f6" d="M15.014,24.574c0.52,0,1.138,0.576,1.986,0.64V21H8c-1.105,0-2,0.895-2,2v9h4.215	c-0.064,0.848-0.64,1.466-0.64,1.986c0,0.787,0.862,1.068,1.926,1.068s1.926-0.281,1.926-1.068c0-0.52-0.576-1.138-0.64-1.986H17	v-4.215c-0.848,0.064-1.466,0.64-1.986,0.64c-0.787,0-1.068-0.862-1.068-1.926S14.227,24.574,15.014,24.574z"/></svg>