<svg xmlns="http://www.w3.org/2000/svg"  viewBox="0 0 480.879 480.879" width="60px" height="60px"><path fill="#ffebd2" d="M472.73,210.97c0,17.17-13.927,31.15-31.15,31.15h-11.92c21.54,0,38.43,18.53,36.42,39.98	c-1.735,18.731-17.465,33.19-36.43,33.19h-6.83c29.557,0,46.637,33.203,30.25,57.18c-6.61,9.7-17.75,16-30.25,16h-19.94	c17.85,0,31.84,15.36,30.18,33.13c-1.45,15.56-14.5,27.46-30.12,27.49L133,449.55c-3.39,13.17-15.34,22.9-29.57,22.9h-64.89	C21.67,472.45,8,458.78,8,441.91V201.43c0-16.86,13.67-30.53,30.54-30.53h64.89c16.86,0,30.53,13.67,30.53,30.53h10	c13.67,0,26.47-6.68,34.29-17.89l16.66-23.91c19.13-27.45,29.39-60.11,29.39-93.58v-33.1c0-16.84,16.71-28.78,32.54-23.04	c36.67,13.3,62.89,48.44,62.89,89.73v57.8c0,8.84,7.16,16,16,16h102.81C458.76,173.44,474.61,190.83,472.73,210.97z"/><path fill="#fe4f60" d="M133.96,201.43v240.48c0,16.935-13.723,30.54-30.53,30.54H38.54C21.67,472.45,8,458.78,8,441.91	V201.43c0-16.86,13.67-30.53,30.54-30.53c6.454,0,56.3,0,64.89,0C120.29,170.9,133.96,184.57,133.96,201.43z"/><path fill="#ffdfba" d="M442.485,226.12c10.296,0,10.836,15.493,0.55,15.967c-1.139,0.052-58.235,0.033-57.232,0.033	c-4.262,0-7.982-3.218-8.255-7.471c-0.299-4.66,3.388-8.529,7.983-8.529H442.485z"/><path fill="#ffdfba" d="M430.704,299.29c10.326,0,10.819,15.535,0.502,15.967c-1.27,0.053-46.414,0.033-45.403,0.033	c-4.262,0-7.982-3.218-8.255-7.471c-0.299-4.66,3.388-8.529,7.983-8.529H430.704z"/><path fill="#ffdfba" d="M423.873,372.47c10.326,0,10.819,15.534,0.502,15.967c-1.217,0.051-65.014,0.033-64.013,0.033	c-4.262,0-7.982-3.218-8.255-7.471c-0.299-4.66,3.388-8.529,7.983-8.529H423.873z"/><path fill="#ffdfba" d="M133,449.55c1.223-4.736,0.96-7.069,0.96-20c1.812-0.003,269.343-0.434,270.669-0.51	c12.776-0.733,14.855,18.195,2.16,19.805C403.953,449.205,422.04,449.058,133,449.55z"/><path fill="#fff3e4" d="M263.097,43.933c-6.105,5.009-8.796,12.904-8.796,19.017v33.1c0,33.47-10.26,66.13-29.39,93.58	l-16.66,23.91c-7.82,11.21-20.62,17.89-34.29,17.89h-40v-30h10c13.67,0,26.47-6.68,34.29-17.89l16.66-23.91	c19.13-27.45,29.39-60.11,29.39-93.58v-33.1c0-16.84,16.71-28.78,32.54-23.04C273.35,15.901,274.297,34.745,263.097,43.933z"/><path fill="#ff6d7a" d="M104,211.57H78.541C61.67,211.57,48,225.24,48,242.1v200.532c0,26.079-40,27.351-40-0.052V202.1	c0-16.86,13.67-30.53,30.54-30.53h64.89C131.812,171.57,129.825,211.57,104,211.57z"/><path fill="#ffdfba" d="M153.2,209.376v232.15c0,4.412-3.572,7.991-7.984,8L133,449.55c1.389-5.382,0.96,11.795,0.96-248.12	c3.362,0,6.996,0.136,10.815-0.041C149.355,201.177,153.2,204.791,153.2,209.376z"/><path d="M480.692,211.715c-0.388,4.146-3.874,7.258-7.956,7.258c-4.739,0-8.412-4.069-7.976-8.744	c1.446-15.478-10.695-28.788-26.224-28.788H319.729c-4.418,0-8-3.582-8-8s3.582-8,8-8h118.808	C463.401,165.44,483.012,186.86,480.692,211.715z M184.812,188.109l16.659-23.901c20.17-28.94,30.831-62.883,30.831-98.159V32.951	c0-11.38,11.239-19.357,21.812-15.521c34.462,12.5,57.616,45.54,57.616,82.215v20.806c0,4.418,3.582,8,8,8s8-3.582,8-8V99.644	c0-43.384-27.392-82.468-68.161-97.256c-21.352-7.744-43.267,8.493-43.267,30.563v33.098c0,31.988-9.668,62.768-27.958,89.011	l-16.659,23.901c-6.316,9.063-16.683,14.474-27.729,14.474h-9.992c-4.418,0-8,3.582-8,8v240.479	c0,12.427-10.109,22.537-22.536,22.537H38.536C26.109,464.45,16,454.34,16,441.913V201.434c0-12.427,10.109-22.537,22.536-22.537	h39.443c4.418,0,8-3.582,8-8s-3.582-8-8-8H38.536C17.287,162.897,0,180.185,0,201.434v240.479c0,21.249,17.287,38.537,38.536,38.537	h64.892c21.249,0,38.536-17.288,38.536-38.537V209.434h1.992C160.231,209.434,175.505,201.463,184.812,188.109z M429.656,234.117	h-44.121c-4.418,0-8,3.582-8,8s3.582,8,8,8h44.121c8.144,0,15.648,3.315,21.133,9.336c16.485,18.097,4.004,47.842-21.14,47.842	c-16.857,0-27.551,0-43.919,0c-4.885,0-8.195,3.784-8.195,8c0,4.201,3.295,8,8.195,8h37.091c8.144,0,15.649,3.315,21.134,9.336	c16.486,18.098,4.008,47.842-21.134,47.842c-7.254,0-56.558,0-62.733,0c-11.104,0-11.083,16,0,16h42.791	c6.356,0,12.214,2.588,16.494,7.286c12.878,14.138,3.099,37.3-16.454,37.335l-221.354,0.452c-4.418,0.009-7.992,3.598-7.983,8.017	c0.009,4.377,3.547,7.983,8.017,7.983l221.352-0.452c32.181-0.059,49.463-36.949,30.172-61.806	c35.812-8.367,46.287-54.218,18.289-77.599c25.118-13.96,30.477-47.858,11.206-69.011	C454.188,239.425,442.174,234.117,429.656,234.117z"/></svg>