<?xml version="1.0" encoding="UTF-8"?>
<svg xmlns="http://www.w3.org/2000/svg" xmlns:xlink="http://www.w3.org/1999/xlink" viewBox="0 0 96 96" width="96px" height="96px">
<defs>
<radialGradient id="radial0" gradientUnits="userSpaceOnUse" cx="73.010422" cy="73.949249" fx="73.010422" fy="73.949249" r="82.792923" gradientTransform="matrix(0.55814,0,0,0.55814,0,0)">
<stop offset="0" style="stop-color:rgb(100%,85.490197%,10.980392%);stop-opacity:1;"/>
<stop offset="0.293" style="stop-color:rgb(100%,85.490197%,10.980392%);stop-opacity:1;"/>
<stop offset="0.566" style="stop-color:rgb(100%,85.490197%,10.980392%);stop-opacity:1;"/>
<stop offset="0.832" style="stop-color:rgb(100%,85.490197%,10.980392%);stop-opacity:1;"/>
<stop offset="1" style="stop-color:rgb(100%,85.490197%,10.980392%);stop-opacity:1;"/>
</radialGradient>
</defs>
<g id="surface20069841">
<path style=" stroke:none;fill-rule:nonzero;fill:rgb(100%,85.490197%,10.980392%);fill-opacity:1;" d="M 49.824219 10.371094 L 60.78125 34.949219 L 87.539062 37.773438 C 89.261719 37.957031 89.953125 40.089844 88.664062 41.246094 L 68.679688 59.257812 L 74.261719 85.578125 C 74.621094 87.273438 72.804688 88.59375 71.304688 87.726562 L 48 74.28125 L 24.695312 87.726562 C 23.195312 88.589844 21.378906 87.273438 21.738281 85.578125 L 27.320312 59.257812 L 7.335938 41.246094 C 6.046875 40.089844 6.742188 37.953125 8.460938 37.773438 L 35.21875 34.945312 L 46.175781 10.371094 C 46.878906 8.789062 49.121094 8.789062 49.824219 10.371094 Z M 49.824219 10.371094 "/>
<path style=" stroke:none;fill-rule:nonzero;fill:url(#radial0);" d="M 87.539062 37.773438 L 60.78125 34.949219 L 49.824219 10.371094 C 49.472656 9.578125 48.734375 9.1875 48 9.1875 L 48 74.28125 L 71.304688 87.726562 C 72.804688 88.59375 74.621094 87.273438 74.261719 85.578125 L 68.679688 59.257812 L 88.664062 41.246094 C 89.953125 40.089844 89.261719 37.957031 87.539062 37.773438 Z M 87.539062 37.773438 "/>
</g>
</svg>
